<mxfile host="drawio-plugin" modified="2023-06-13T10:59:37.562Z" agent="5.0 (Windows NT 6.2; Win64; x64) AppleWebKit/537.36 (KHTML, like Gecko) Chrome/104.0.5112.102 Safari/537.36" etag="q77beO_7Qd-e9H8buwys" version="20.5.3" type="embed"><diagram id="7lGQXFfnrCM3LfUt94uL" name="Page-1"><mxGraphModel dx="1646" dy="1104" grid="1" gridSize="10" guides="1" tooltips="1" connect="1" arrows="1" fold="1" page="1" pageScale="1" pageWidth="850" pageHeight="1100" math="0" shadow="0"><root><mxCell id="0"/><mxCell id="1" parent="0"/><mxCell id="hQnvw_6kECJiyrSSrivd-7" style="edgeStyle=orthogonalEdgeStyle;rounded=0;orthogonalLoop=1;jettySize=auto;html=1;exitX=0;exitY=1;exitDx=0;exitDy=0;entryX=0;entryY=0.5;entryDx=0;entryDy=0;strokeColor=default;endArrow=none;endFill=0;" parent="1" source="hQnvw_6kECJiyrSSrivd-1" target="hQnvw_6kECJiyrSSrivd-4" edge="1"><mxGeometry relative="1" as="geometry"><Array as="points"><mxPoint x="180" y="180"/><mxPoint x="180" y="215"/></Array></mxGeometry></mxCell><mxCell id="hQnvw_6kECJiyrSSrivd-1" value="&lt;div&gt;PLC&lt;/div&gt;" style="rounded=0;whiteSpace=wrap;html=1;" parent="1" vertex="1"><mxGeometry x="170" y="120" width="120" height="60" as="geometry"/></mxCell><mxCell id="hQnvw_6kECJiyrSSrivd-4" value="&lt;div&gt;Axis 1&lt;/div&gt;" style="rounded=1;whiteSpace=wrap;html=1;" parent="1" vertex="1"><mxGeometry x="200" y="200" width="120" height="30" as="geometry"/></mxCell><mxCell id="hQnvw_6kECJiyrSSrivd-10" style="edgeStyle=orthogonalEdgeStyle;rounded=0;orthogonalLoop=1;jettySize=auto;html=1;exitX=0;exitY=0.5;exitDx=0;exitDy=0;strokeColor=default;endArrow=none;endFill=0;" parent="1" source="hQnvw_6kECJiyrSSrivd-8" edge="1"><mxGeometry relative="1" as="geometry"><mxPoint x="180" y="210" as="targetPoint"/></mxGeometry></mxCell><mxCell id="hQnvw_6kECJiyrSSrivd-8" value="&lt;div&gt;Axis &lt;i&gt;2&lt;/i&gt;&lt;br&gt;&lt;/div&gt;" style="rounded=1;whiteSpace=wrap;html=1;" parent="1" vertex="1"><mxGeometry x="200" y="270" width="120" height="30" as="geometry"/></mxCell><mxCell id="hQnvw_6kECJiyrSSrivd-11" style="edgeStyle=orthogonalEdgeStyle;rounded=0;orthogonalLoop=1;jettySize=auto;html=1;exitX=0;exitY=0.5;exitDx=0;exitDy=0;strokeColor=default;endArrow=none;endFill=0;" parent="1" source="hQnvw_6kECJiyrSSrivd-9" edge="1"><mxGeometry relative="1" as="geometry"><mxPoint x="180" y="260" as="targetPoint"/></mxGeometry></mxCell><mxCell id="hQnvw_6kECJiyrSSrivd-12" value="&lt;i&gt;device&lt;/i&gt;" style="text;html=1;strokeColor=none;fillColor=none;align=center;verticalAlign=middle;whiteSpace=wrap;rounded=0;" parent="1" vertex="1"><mxGeometry x="280" y="180" width="40" height="20" as="geometry"/></mxCell><mxCell id="hQnvw_6kECJiyrSSrivd-13" value="&lt;i&gt;device&lt;/i&gt;" style="text;html=1;strokeColor=none;fillColor=none;align=center;verticalAlign=middle;whiteSpace=wrap;rounded=0;" parent="1" vertex="1"><mxGeometry x="280" y="250" width="40" height="20" as="geometry"/></mxCell><mxCell id="hQnvw_6kECJiyrSSrivd-15" value="&lt;i&gt;controller&lt;/i&gt;" style="text;html=1;strokeColor=none;fillColor=none;align=center;verticalAlign=middle;whiteSpace=wrap;rounded=0;" parent="1" vertex="1"><mxGeometry x="230" y="100" width="60" height="20" as="geometry"/></mxCell><mxCell id="hQnvw_6kECJiyrSSrivd-22" style="edgeStyle=orthogonalEdgeStyle;rounded=0;orthogonalLoop=1;jettySize=auto;html=1;entryX=0.5;entryY=1;entryDx=0;entryDy=0;strokeColor=default;endArrow=none;endFill=0;" parent="1" source="hQnvw_6kECJiyrSSrivd-18" target="hQnvw_6kECJiyrSSrivd-4" edge="1"><mxGeometry relative="1" as="geometry"/></mxCell><mxCell id="hQnvw_6kECJiyrSSrivd-18" value="GSD A" style="whiteSpace=wrap;html=1;shape=mxgraph.basic.document" parent="1" vertex="1"><mxGeometry x="340" y="230" width="50" height="40" as="geometry"/></mxCell><mxCell id="hQnvw_6kECJiyrSSrivd-21" style="edgeStyle=orthogonalEdgeStyle;rounded=0;orthogonalLoop=1;jettySize=auto;html=1;entryX=0.5;entryY=1;entryDx=0;entryDy=0;strokeColor=default;endArrow=none;endFill=0;" parent="1" source="hQnvw_6kECJiyrSSrivd-20" target="hQnvw_6kECJiyrSSrivd-8" edge="1"><mxGeometry relative="1" as="geometry"/></mxCell><mxCell id="hQnvw_6kECJiyrSSrivd-20" value="GSD B" style="whiteSpace=wrap;html=1;shape=mxgraph.basic.document" parent="1" vertex="1"><mxGeometry x="340" y="300" width="50" height="40" as="geometry"/></mxCell><mxCell id="hQnvw_6kECJiyrSSrivd-25" value="&#10;&#10;pnet on Linux" style="swimlane;startSize=0;" parent="1" vertex="1"><mxGeometry x="160" y="350" width="630" height="200" as="geometry"><mxRectangle x="160" y="350" width="50" height="40" as="alternateBounds"/></mxGeometry></mxCell><mxCell id="hQnvw_6kECJiyrSSrivd-9" value="&lt;div&gt;p-net library&lt;/div&gt;" style="rounded=1;whiteSpace=wrap;html=1;" parent="hQnvw_6kECJiyrSSrivd-25" vertex="1"><mxGeometry x="40" y="60" width="120" height="60" as="geometry"/></mxCell><mxCell id="hQnvw_6kECJiyrSSrivd-16" value="&lt;i&gt;virtual device&lt;/i&gt;" style="text;html=1;strokeColor=none;fillColor=none;align=center;verticalAlign=middle;whiteSpace=wrap;rounded=0;" parent="hQnvw_6kECJiyrSSrivd-25" vertex="1"><mxGeometry x="80" y="40" width="80" height="20" as="geometry"/></mxCell><mxCell id="hQnvw_6kECJiyrSSrivd-24" style="edgeStyle=orthogonalEdgeStyle;rounded=0;orthogonalLoop=1;jettySize=auto;html=1;exitX=0;exitY=0.5;exitDx=0;exitDy=0;exitPerimeter=0;strokeColor=default;endArrow=none;endFill=0;entryX=0.5;entryY=1;entryDx=0;entryDy=0;" parent="hQnvw_6kECJiyrSSrivd-25" source="hQnvw_6kECJiyrSSrivd-23" target="hQnvw_6kECJiyrSSrivd-9" edge="1"><mxGeometry relative="1" as="geometry"/></mxCell><mxCell id="hQnvw_6kECJiyrSSrivd-23" value="GSD C" style="whiteSpace=wrap;html=1;shape=mxgraph.basic.document" parent="hQnvw_6kECJiyrSSrivd-25" vertex="1"><mxGeometry x="180" y="120" width="50" height="40" as="geometry"/></mxCell><mxCell id="kAhAt_XjZ6wsbJzak4BN-2" style="edgeStyle=orthogonalEdgeStyle;rounded=0;orthogonalLoop=1;jettySize=auto;html=1;startArrow=classic;startFill=1;" parent="1" source="kAhAt_XjZ6wsbJzak4BN-1" target="hQnvw_6kECJiyrSSrivd-9" edge="1"><mxGeometry relative="1" as="geometry"/></mxCell><mxCell id="kAhAt_XjZ6wsbJzak4BN-5" value="UDP" style="edgeLabel;html=1;align=center;verticalAlign=middle;resizable=0;points=[];" parent="kAhAt_XjZ6wsbJzak4BN-2" vertex="1" connectable="0"><mxGeometry x="-0.2667" y="-2" relative="1" as="geometry"><mxPoint x="-31" y="2" as="offset"/></mxGeometry></mxCell><mxCell id="kAhAt_XjZ6wsbJzak4BN-1" value="&lt;div&gt;Python&lt;/div&gt;&lt;div&gt;&lt;pre&gt;gantry.go_to(t, x, y, z, v, a)&lt;br&gt;gantry.set_speed_limits(v_x, v_y, v_z)&lt;br&gt;gantry.set_acceleration_limits(a_x, a_y, a_z)&lt;/pre&gt;&lt;/div&gt;" style="verticalLabelPosition=bottom;html=1;verticalAlign=top;align=center;strokeColor=none;fillColor=#00BEF2;shape=mxgraph.azure.computer;pointerEvents=1;" parent="1" vertex="1"><mxGeometry x="590" y="417.5" width="50" height="45" as="geometry"/></mxCell></root></mxGraphModel></diagram></mxfile>